<?xml version="1.0" encoding="UTF-8" standalone="no"?>
    <!--  Generated by zkeymap: https://pypi.org/project/zkeymap/
 -->
    <svg
        width="343mm"
        height="221.8mm"
        viewBox="0 0 343 221.8"
        version="1.1"
        id="svg1"
        xmlns="http://www.w3.org/2000/svg"
        xmlns:svg="http://www.w3.org/2000/svg">
        <style>
            

    .background-box {
        fill: #ffffff;
    }

    .content {
        fill: #000000;
    }

    .key-cap {
        stroke: #0080ff;
        stroke-width: 0.1;
        fill: #fafafa;
    }

    .behavior-muted .key-cap {
        stroke: #ff0000;
        stroke-width: 0.1;
        stroke-dasharray: 0.3, 0.3;
        stroke-dashoffset: 0;
        fill: #fefefe;
        opacity: 0.6;

    }

    .key-switch {
        stroke: #000000;
        stroke-width: 0.1;
        fill: none;
    }

    .key-outer {
        stroke: #dedede;
        stroke-width: 0.1;
        stroke-dasharray: 0.3, 0.3;
        stroke-dashoffset: 0;
        fill: none;
        opacity: 0.5;
    }

    .key-hold-text {
        fill: #ff0000;
        opacity: 0.5;
    }

    .key-mods-text {
        fill: #000080;
        opacity: 0.5;
    }

    .key-tap-text {
        fill: #0070ff;
    }

    .key-behavior-text {
        fill: #c0c0c0;
        opacity: 0.5;
    }

    .zkeymap-notice, .zkeymap-link {
        opacity: 0.5;
    }


        </style>
        <g class="content">
            <rect x="0" y="0"
                width="343" height="221.8"
                class="background-box" />
            <g id="g618" transform="translate(10, 10)" >
            <text 
                y="8.8" 
                class="layout-name"
                style="font-size:8.8;text-align:left;text-anchor:start;;">
                <![CDATA[Layout: marz_split_3x6_4]]>
            </text>
            </g>
<g id="g619" transform="translate(10, 20.8)" >
            <text 
                y="5.6" 
                class="layout-display"
                style="font-size:5.6;text-align:left;text-anchor:start;;">
                <![CDATA[Corn like split but 3x6_4

]]>
            </text>
            </g>
<g id="g620" transform="translate(10, 34.0)" ></g>
<g id="g621" transform="translate(10, 46.0)" >
            <text 
                y="8" 
                class="layer-title layer-0-title"
                style="font-size:8;text-align:left;text-anchor:start;;">
                <![CDATA[Layer: DEF (0) ]]>
            </text>
            </g>
<g id="g622" transform="translate(10, 56.0)" ></g>
<g id="g623" transform="translate(10, 68.0)" ><g id="g566" transform="translate(0, 14.25)"  class="key keypos-0 behavior-modtap" >
    <path transform="translate(2.5, 2.5)" class="key-switch" id="key-switch-0-0"
        d="M 0.999938,-0.799952 V 0 H 0 V 0.999939 H -0.799952 V 4.499983
        H 0 v 4.999695 h -0.799952 v 3.500045 H 0 v 0.999939 h 0.999938
        v 0.799951 h 3.500045 v -0.799951 h 4.999695 v 0.799951 h 3.50004
        v -0.799951 h 0.99994 v -0.999939 h 0.79995 V 9.499678 h -0.79995
        V 4.499983 h 0.79995 V 0.999939 h -0.79995 V 0 h -0.99994 V -0.799952
        H 9.499678 V 0 H 4.499983 v -0.799952 z" />
</g>
<g id="g567" transform="translate(19, 14.25)"  class="key keypos-1 behavior-keypress" >
    <path transform="translate(2.5, 2.5)" class="key-switch" id="key-switch-0-1"
        d="M 0.999938,-0.799952 V 0 H 0 V 0.999939 H -0.799952 V 4.499983
        H 0 v 4.999695 h -0.799952 v 3.500045 H 0 v 0.999939 h 0.999938
        v 0.799951 h 3.500045 v -0.799951 h 4.999695 v 0.799951 h 3.50004
        v -0.799951 h 0.99994 v -0.999939 h 0.79995 V 9.499678 h -0.79995
        V 4.499983 h 0.79995 V 0.999939 h -0.79995 V 0 h -0.99994 V -0.799952
        H 9.499678 V 0 H 4.499983 v -0.799952 z" />
</g>
<g id="g568" transform="translate(38, 4.75)"  class="key keypos-2 behavior-keypress" >
    <path transform="translate(2.5, 2.5)" class="key-switch" id="key-switch-0-2"
        d="M 0.999938,-0.799952 V 0 H 0 V 0.999939 H -0.799952 V 4.499983
        H 0 v 4.999695 h -0.799952 v 3.500045 H 0 v 0.999939 h 0.999938
        v 0.799951 h 3.500045 v -0.799951 h 4.999695 v 0.799951 h 3.50004
        v -0.799951 h 0.99994 v -0.999939 h 0.79995 V 9.499678 h -0.79995
        V 4.499983 h 0.79995 V 0.999939 h -0.79995 V 0 h -0.99994 V -0.799952
        H 9.499678 V 0 H 4.499983 v -0.799952 z" />
</g>
<g id="g569" transform="translate(57, 0)"  class="key keypos-3 behavior-keypress" >
    <path transform="translate(2.5, 2.5)" class="key-switch" id="key-switch-0-3"
        d="M 0.999938,-0.799952 V 0 H 0 V 0.999939 H -0.799952 V 4.499983
        H 0 v 4.999695 h -0.799952 v 3.500045 H 0 v 0.999939 h 0.999938
        v 0.799951 h 3.500045 v -0.799951 h 4.999695 v 0.799951 h 3.50004
        v -0.799951 h 0.99994 v -0.999939 h 0.79995 V 9.499678 h -0.79995
        V 4.499983 h 0.79995 V 0.999939 h -0.79995 V 0 h -0.99994 V -0.799952
        H 9.499678 V 0 H 4.499983 v -0.799952 z" />
</g>
<g id="g570" transform="translate(76, 6.6499999999999995)"  class="key keypos-4 behavior-keypress" >
    <path transform="translate(2.5, 2.5)" class="key-switch" id="key-switch-0-4"
        d="M 0.999938,-0.799952 V 0 H 0 V 0.999939 H -0.799952 V 4.499983
        H 0 v 4.999695 h -0.799952 v 3.500045 H 0 v 0.999939 h 0.999938
        v 0.799951 h 3.500045 v -0.799951 h 4.999695 v 0.799951 h 3.50004
        v -0.799951 h 0.99994 v -0.999939 h 0.79995 V 9.499678 h -0.79995
        V 4.499983 h 0.79995 V 0.999939 h -0.79995 V 0 h -0.99994 V -0.799952
        H 9.499678 V 0 H 4.499983 v -0.799952 z" />
</g>
<g id="g571" transform="translate(95, 8.55)"  class="key keypos-5 behavior-keypress" >
    <path transform="translate(2.5, 2.5)" class="key-switch" id="key-switch-0-5"
        d="M 0.999938,-0.799952 V 0 H 0 V 0.999939 H -0.799952 V 4.499983
        H 0 v 4.999695 h -0.799952 v 3.500045 H 0 v 0.999939 h 0.999938
        v 0.799951 h 3.500045 v -0.799951 h 4.999695 v 0.799951 h 3.50004
        v -0.799951 h 0.99994 v -0.999939 h 0.79995 V 9.499678 h -0.79995
        V 4.499983 h 0.79995 V 0.999939 h -0.79995 V 0 h -0.99994 V -0.799952
        H 9.499678 V 0 H 4.499983 v -0.799952 z" />
</g>
<g id="g572" transform="translate(209, 8.55)"  class="key keypos-6 behavior-keypress" >
    <path transform="translate(2.5, 2.5)" class="key-switch" id="key-switch-0-6"
        d="M 0.999938,-0.799952 V 0 H 0 V 0.999939 H -0.799952 V 4.499983
        H 0 v 4.999695 h -0.799952 v 3.500045 H 0 v 0.999939 h 0.999938
        v 0.799951 h 3.500045 v -0.799951 h 4.999695 v 0.799951 h 3.50004
        v -0.799951 h 0.99994 v -0.999939 h 0.79995 V 9.499678 h -0.79995
        V 4.499983 h 0.79995 V 0.999939 h -0.79995 V 0 h -0.99994 V -0.799952
        H 9.499678 V 0 H 4.499983 v -0.799952 z" />
</g>
<g id="g573" transform="translate(228, 6.6499999999999995)"  class="key keypos-7 behavior-keypress" >
    <path transform="translate(2.5, 2.5)" class="key-switch" id="key-switch-0-7"
        d="M 0.999938,-0.799952 V 0 H 0 V 0.999939 H -0.799952 V 4.499983
        H 0 v 4.999695 h -0.799952 v 3.500045 H 0 v 0.999939 h 0.999938
        v 0.799951 h 3.500045 v -0.799951 h 4.999695 v 0.799951 h 3.50004
        v -0.799951 h 0.99994 v -0.999939 h 0.79995 V 9.499678 h -0.79995
        V 4.499983 h 0.79995 V 0.999939 h -0.79995 V 0 h -0.99994 V -0.799952
        H 9.499678 V 0 H 4.499983 v -0.799952 z" />
</g>
<g id="g574" transform="translate(247, 0)"  class="key keypos-8 behavior-keypress" >
    <path transform="translate(2.5, 2.5)" class="key-switch" id="key-switch-0-8"
        d="M 0.999938,-0.799952 V 0 H 0 V 0.999939 H -0.799952 V 4.499983
        H 0 v 4.999695 h -0.799952 v 3.500045 H 0 v 0.999939 h 0.999938
        v 0.799951 h 3.500045 v -0.799951 h 4.999695 v 0.799951 h 3.50004
        v -0.799951 h 0.99994 v -0.999939 h 0.79995 V 9.499678 h -0.79995
        V 4.499983 h 0.79995 V 0.999939 h -0.79995 V 0 h -0.99994 V -0.799952
        H 9.499678 V 0 H 4.499983 v -0.799952 z" />
</g>
<g id="g575" transform="translate(266, 4.75)"  class="key keypos-9 behavior-keypress" >
    <path transform="translate(2.5, 2.5)" class="key-switch" id="key-switch-0-9"
        d="M 0.999938,-0.799952 V 0 H 0 V 0.999939 H -0.799952 V 4.499983
        H 0 v 4.999695 h -0.799952 v 3.500045 H 0 v 0.999939 h 0.999938
        v 0.799951 h 3.500045 v -0.799951 h 4.999695 v 0.799951 h 3.50004
        v -0.799951 h 0.99994 v -0.999939 h 0.79995 V 9.499678 h -0.79995
        V 4.499983 h 0.79995 V 0.999939 h -0.79995 V 0 h -0.99994 V -0.799952
        H 9.499678 V 0 H 4.499983 v -0.799952 z" />
</g>
<g id="g576" transform="translate(285, 14.25)"  class="key keypos-10 behavior-keypress" >
    <path transform="translate(2.5, 2.5)" class="key-switch" id="key-switch-0-10"
        d="M 0.999938,-0.799952 V 0 H 0 V 0.999939 H -0.799952 V 4.499983
        H 0 v 4.999695 h -0.799952 v 3.500045 H 0 v 0.999939 h 0.999938
        v 0.799951 h 3.500045 v -0.799951 h 4.999695 v 0.799951 h 3.50004
        v -0.799951 h 0.99994 v -0.999939 h 0.79995 V 9.499678 h -0.79995
        V 4.499983 h 0.79995 V 0.999939 h -0.79995 V 0 h -0.99994 V -0.799952
        H 9.499678 V 0 H 4.499983 v -0.799952 z" />
</g>
<g id="g577" transform="translate(304, 14.25)"  class="key keypos-11 behavior-keypress" >
    <path transform="translate(2.5, 2.5)" class="key-switch" id="key-switch-0-11"
        d="M 0.999938,-0.799952 V 0 H 0 V 0.999939 H -0.799952 V 4.499983
        H 0 v 4.999695 h -0.799952 v 3.500045 H 0 v 0.999939 h 0.999938
        v 0.799951 h 3.500045 v -0.799951 h 4.999695 v 0.799951 h 3.50004
        v -0.799951 h 0.99994 v -0.999939 h 0.79995 V 9.499678 h -0.79995
        V 4.499983 h 0.79995 V 0.999939 h -0.79995 V 0 h -0.99994 V -0.799952
        H 9.499678 V 0 H 4.499983 v -0.799952 z" />
</g>
<g id="g578" transform="translate(0, 33.25)"  class="key keypos-12 behavior-modtap" >
    <path transform="translate(2.5, 2.5)" class="key-switch" id="key-switch-0-12"
        d="M 0.999938,-0.799952 V 0 H 0 V 0.999939 H -0.799952 V 4.499983
        H 0 v 4.999695 h -0.799952 v 3.500045 H 0 v 0.999939 h 0.999938
        v 0.799951 h 3.500045 v -0.799951 h 4.999695 v 0.799951 h 3.50004
        v -0.799951 h 0.99994 v -0.999939 h 0.79995 V 9.499678 h -0.79995
        V 4.499983 h 0.79995 V 0.999939 h -0.79995 V 0 h -0.99994 V -0.799952
        H 9.499678 V 0 H 4.499983 v -0.799952 z" />
</g>
<g id="g579" transform="translate(19, 33.25)"  class="key keypos-13 behavior-modtap" >
    <path transform="translate(2.5, 2.5)" class="key-switch" id="key-switch-0-13"
        d="M 0.999938,-0.799952 V 0 H 0 V 0.999939 H -0.799952 V 4.499983
        H 0 v 4.999695 h -0.799952 v 3.500045 H 0 v 0.999939 h 0.999938
        v 0.799951 h 3.500045 v -0.799951 h 4.999695 v 0.799951 h 3.50004
        v -0.799951 h 0.99994 v -0.999939 h 0.79995 V 9.499678 h -0.79995
        V 4.499983 h 0.79995 V 0.999939 h -0.79995 V 0 h -0.99994 V -0.799952
        H 9.499678 V 0 H 4.499983 v -0.799952 z" />
</g>
<g id="g580" transform="translate(38, 23.75)"  class="key keypos-14 behavior-keypress" >
    <path transform="translate(2.5, 2.5)" class="key-switch" id="key-switch-0-14"
        d="M 0.999938,-0.799952 V 0 H 0 V 0.999939 H -0.799952 V 4.499983
        H 0 v 4.999695 h -0.799952 v 3.500045 H 0 v 0.999939 h 0.999938
        v 0.799951 h 3.500045 v -0.799951 h 4.999695 v 0.799951 h 3.50004
        v -0.799951 h 0.99994 v -0.999939 h 0.79995 V 9.499678 h -0.79995
        V 4.499983 h 0.79995 V 0.999939 h -0.79995 V 0 h -0.99994 V -0.799952
        H 9.499678 V 0 H 4.499983 v -0.799952 z" />
</g>
<g id="g581" transform="translate(57, 19)"  class="key keypos-15 behavior-keypress" >
    <path transform="translate(2.5, 2.5)" class="key-switch" id="key-switch-0-15"
        d="M 0.999938,-0.799952 V 0 H 0 V 0.999939 H -0.799952 V 4.499983
        H 0 v 4.999695 h -0.799952 v 3.500045 H 0 v 0.999939 h 0.999938
        v 0.799951 h 3.500045 v -0.799951 h 4.999695 v 0.799951 h 3.50004
        v -0.799951 h 0.99994 v -0.999939 h 0.79995 V 9.499678 h -0.79995
        V 4.499983 h 0.79995 V 0.999939 h -0.79995 V 0 h -0.99994 V -0.799952
        H 9.499678 V 0 H 4.499983 v -0.799952 z" />
</g>
<g id="g582" transform="translate(76, 25.650000000000002)"  class="key keypos-16 behavior-keypress" >
    <path transform="translate(2.5, 2.5)" class="key-switch" id="key-switch-0-16"
        d="M 0.999938,-0.799952 V 0 H 0 V 0.999939 H -0.799952 V 4.499983
        H 0 v 4.999695 h -0.799952 v 3.500045 H 0 v 0.999939 h 0.999938
        v 0.799951 h 3.500045 v -0.799951 h 4.999695 v 0.799951 h 3.50004
        v -0.799951 h 0.99994 v -0.999939 h 0.79995 V 9.499678 h -0.79995
        V 4.499983 h 0.79995 V 0.999939 h -0.79995 V 0 h -0.99994 V -0.799952
        H 9.499678 V 0 H 4.499983 v -0.799952 z" />
</g>
<g id="g583" transform="translate(95, 27.55)"  class="key keypos-17 behavior-keypress" >
    <path transform="translate(2.5, 2.5)" class="key-switch" id="key-switch-0-17"
        d="M 0.999938,-0.799952 V 0 H 0 V 0.999939 H -0.799952 V 4.499983
        H 0 v 4.999695 h -0.799952 v 3.500045 H 0 v 0.999939 h 0.999938
        v 0.799951 h 3.500045 v -0.799951 h 4.999695 v 0.799951 h 3.50004
        v -0.799951 h 0.99994 v -0.999939 h 0.79995 V 9.499678 h -0.79995
        V 4.499983 h 0.79995 V 0.999939 h -0.79995 V 0 h -0.99994 V -0.799952
        H 9.499678 V 0 H 4.499983 v -0.799952 z" />
</g>
<g id="g584" transform="translate(209, 27.55)"  class="key keypos-18 behavior-keypress" >
    <path transform="translate(2.5, 2.5)" class="key-switch" id="key-switch-0-18"
        d="M 0.999938,-0.799952 V 0 H 0 V 0.999939 H -0.799952 V 4.499983
        H 0 v 4.999695 h -0.799952 v 3.500045 H 0 v 0.999939 h 0.999938
        v 0.799951 h 3.500045 v -0.799951 h 4.999695 v 0.799951 h 3.50004
        v -0.799951 h 0.99994 v -0.999939 h 0.79995 V 9.499678 h -0.79995
        V 4.499983 h 0.79995 V 0.999939 h -0.79995 V 0 h -0.99994 V -0.799952
        H 9.499678 V 0 H 4.499983 v -0.799952 z" />
</g>
<g id="g585" transform="translate(228, 25.650000000000002)"  class="key keypos-19 behavior-keypress" >
    <path transform="translate(2.5, 2.5)" class="key-switch" id="key-switch-0-19"
        d="M 0.999938,-0.799952 V 0 H 0 V 0.999939 H -0.799952 V 4.499983
        H 0 v 4.999695 h -0.799952 v 3.500045 H 0 v 0.999939 h 0.999938
        v 0.799951 h 3.500045 v -0.799951 h 4.999695 v 0.799951 h 3.50004
        v -0.799951 h 0.99994 v -0.999939 h 0.79995 V 9.499678 h -0.79995
        V 4.499983 h 0.79995 V 0.999939 h -0.79995 V 0 h -0.99994 V -0.799952
        H 9.499678 V 0 H 4.499983 v -0.799952 z" />
</g>
<g id="g586" transform="translate(247, 19)"  class="key keypos-20 behavior-keypress" >
    <path transform="translate(2.5, 2.5)" class="key-switch" id="key-switch-0-20"
        d="M 0.999938,-0.799952 V 0 H 0 V 0.999939 H -0.799952 V 4.499983
        H 0 v 4.999695 h -0.799952 v 3.500045 H 0 v 0.999939 h 0.999938
        v 0.799951 h 3.500045 v -0.799951 h 4.999695 v 0.799951 h 3.50004
        v -0.799951 h 0.99994 v -0.999939 h 0.79995 V 9.499678 h -0.79995
        V 4.499983 h 0.79995 V 0.999939 h -0.79995 V 0 h -0.99994 V -0.799952
        H 9.499678 V 0 H 4.499983 v -0.799952 z" />
</g>
<g id="g587" transform="translate(266, 23.75)"  class="key keypos-21 behavior-keypress" >
    <path transform="translate(2.5, 2.5)" class="key-switch" id="key-switch-0-21"
        d="M 0.999938,-0.799952 V 0 H 0 V 0.999939 H -0.799952 V 4.499983
        H 0 v 4.999695 h -0.799952 v 3.500045 H 0 v 0.999939 h 0.999938
        v 0.799951 h 3.500045 v -0.799951 h 4.999695 v 0.799951 h 3.50004
        v -0.799951 h 0.99994 v -0.999939 h 0.79995 V 9.499678 h -0.79995
        V 4.499983 h 0.79995 V 0.999939 h -0.79995 V 0 h -0.99994 V -0.799952
        H 9.499678 V 0 H 4.499983 v -0.799952 z" />
</g>
<g id="g588" transform="translate(285, 33.25)"  class="key keypos-22 behavior-modtap" >
    <path transform="translate(2.5, 2.5)" class="key-switch" id="key-switch-0-22"
        d="M 0.999938,-0.799952 V 0 H 0 V 0.999939 H -0.799952 V 4.499983
        H 0 v 4.999695 h -0.799952 v 3.500045 H 0 v 0.999939 h 0.999938
        v 0.799951 h 3.500045 v -0.799951 h 4.999695 v 0.799951 h 3.50004
        v -0.799951 h 0.99994 v -0.999939 h 0.79995 V 9.499678 h -0.79995
        V 4.499983 h 0.79995 V 0.999939 h -0.79995 V 0 h -0.99994 V -0.799952
        H 9.499678 V 0 H 4.499983 v -0.799952 z" />
</g>
<g id="g589" transform="translate(304, 33.25)"  class="key keypos-23 behavior-keypress" >
    <path transform="translate(2.5, 2.5)" class="key-switch" id="key-switch-0-23"
        d="M 0.999938,-0.799952 V 0 H 0 V 0.999939 H -0.799952 V 4.499983
        H 0 v 4.999695 h -0.799952 v 3.500045 H 0 v 0.999939 h 0.999938
        v 0.799951 h 3.500045 v -0.799951 h 4.999695 v 0.799951 h 3.50004
        v -0.799951 h 0.99994 v -0.999939 h 0.79995 V 9.499678 h -0.79995
        V 4.499983 h 0.79995 V 0.999939 h -0.79995 V 0 h -0.99994 V -0.799952
        H 9.499678 V 0 H 4.499983 v -0.799952 z" />
</g>
<g id="g590" transform="translate(0, 52.25)"  class="key keypos-24 behavior-modtap" >
    <path transform="translate(2.5, 2.5)" class="key-switch" id="key-switch-0-24"
        d="M 0.999938,-0.799952 V 0 H 0 V 0.999939 H -0.799952 V 4.499983
        H 0 v 4.999695 h -0.799952 v 3.500045 H 0 v 0.999939 h 0.999938
        v 0.799951 h 3.500045 v -0.799951 h 4.999695 v 0.799951 h 3.50004
        v -0.799951 h 0.99994 v -0.999939 h 0.79995 V 9.499678 h -0.79995
        V 4.499983 h 0.79995 V 0.999939 h -0.79995 V 0 h -0.99994 V -0.799952
        H 9.499678 V 0 H 4.499983 v -0.799952 z" />
</g>
<g id="g591" transform="translate(19, 52.25)"  class="key keypos-25 behavior-keypress" >
    <path transform="translate(2.5, 2.5)" class="key-switch" id="key-switch-0-25"
        d="M 0.999938,-0.799952 V 0 H 0 V 0.999939 H -0.799952 V 4.499983
        H 0 v 4.999695 h -0.799952 v 3.500045 H 0 v 0.999939 h 0.999938
        v 0.799951 h 3.500045 v -0.799951 h 4.999695 v 0.799951 h 3.50004
        v -0.799951 h 0.99994 v -0.999939 h 0.79995 V 9.499678 h -0.79995
        V 4.499983 h 0.79995 V 0.999939 h -0.79995 V 0 h -0.99994 V -0.799952
        H 9.499678 V 0 H 4.499983 v -0.799952 z" />
</g>
<g id="g592" transform="translate(38, 42.75)"  class="key keypos-26 behavior-keypress" >
    <path transform="translate(2.5, 2.5)" class="key-switch" id="key-switch-0-26"
        d="M 0.999938,-0.799952 V 0 H 0 V 0.999939 H -0.799952 V 4.499983
        H 0 v 4.999695 h -0.799952 v 3.500045 H 0 v 0.999939 h 0.999938
        v 0.799951 h 3.500045 v -0.799951 h 4.999695 v 0.799951 h 3.50004
        v -0.799951 h 0.99994 v -0.999939 h 0.79995 V 9.499678 h -0.79995
        V 4.499983 h 0.79995 V 0.999939 h -0.79995 V 0 h -0.99994 V -0.799952
        H 9.499678 V 0 H 4.499983 v -0.799952 z" />
</g>
<g id="g593" transform="translate(57, 38)"  class="key keypos-27 behavior-keypress" >
    <path transform="translate(2.5, 2.5)" class="key-switch" id="key-switch-0-27"
        d="M 0.999938,-0.799952 V 0 H 0 V 0.999939 H -0.799952 V 4.499983
        H 0 v 4.999695 h -0.799952 v 3.500045 H 0 v 0.999939 h 0.999938
        v 0.799951 h 3.500045 v -0.799951 h 4.999695 v 0.799951 h 3.50004
        v -0.799951 h 0.99994 v -0.999939 h 0.79995 V 9.499678 h -0.79995
        V 4.499983 h 0.79995 V 0.999939 h -0.79995 V 0 h -0.99994 V -0.799952
        H 9.499678 V 0 H 4.499983 v -0.799952 z" />
</g>
<g id="g594" transform="translate(76, 44.65)"  class="key keypos-28 behavior-keypress" >
    <path transform="translate(2.5, 2.5)" class="key-switch" id="key-switch-0-28"
        d="M 0.999938,-0.799952 V 0 H 0 V 0.999939 H -0.799952 V 4.499983
        H 0 v 4.999695 h -0.799952 v 3.500045 H 0 v 0.999939 h 0.999938
        v 0.799951 h 3.500045 v -0.799951 h 4.999695 v 0.799951 h 3.50004
        v -0.799951 h 0.99994 v -0.999939 h 0.79995 V 9.499678 h -0.79995
        V 4.499983 h 0.79995 V 0.999939 h -0.79995 V 0 h -0.99994 V -0.799952
        H 9.499678 V 0 H 4.499983 v -0.799952 z" />
</g>
<g id="g595" transform="translate(95, 46.550000000000004)"  class="key keypos-29 behavior-keypress" >
    <path transform="translate(2.5, 2.5)" class="key-switch" id="key-switch-0-29"
        d="M 0.999938,-0.799952 V 0 H 0 V 0.999939 H -0.799952 V 4.499983
        H 0 v 4.999695 h -0.799952 v 3.500045 H 0 v 0.999939 h 0.999938
        v 0.799951 h 3.500045 v -0.799951 h 4.999695 v 0.799951 h 3.50004
        v -0.799951 h 0.99994 v -0.999939 h 0.79995 V 9.499678 h -0.79995
        V 4.499983 h 0.79995 V 0.999939 h -0.79995 V 0 h -0.99994 V -0.799952
        H 9.499678 V 0 H 4.499983 v -0.799952 z" />
</g>
<g id="g596" transform="translate(209, 46.550000000000004)"  class="key keypos-30 behavior-keypress" >
    <path transform="translate(2.5, 2.5)" class="key-switch" id="key-switch-0-30"
        d="M 0.999938,-0.799952 V 0 H 0 V 0.999939 H -0.799952 V 4.499983
        H 0 v 4.999695 h -0.799952 v 3.500045 H 0 v 0.999939 h 0.999938
        v 0.799951 h 3.500045 v -0.799951 h 4.999695 v 0.799951 h 3.50004
        v -0.799951 h 0.99994 v -0.999939 h 0.79995 V 9.499678 h -0.79995
        V 4.499983 h 0.79995 V 0.999939 h -0.79995 V 0 h -0.99994 V -0.799952
        H 9.499678 V 0 H 4.499983 v -0.799952 z" />
</g>
<g id="g597" transform="translate(228, 44.65)"  class="key keypos-31 behavior-keypress" >
    <path transform="translate(2.5, 2.5)" class="key-switch" id="key-switch-0-31"
        d="M 0.999938,-0.799952 V 0 H 0 V 0.999939 H -0.799952 V 4.499983
        H 0 v 4.999695 h -0.799952 v 3.500045 H 0 v 0.999939 h 0.999938
        v 0.799951 h 3.500045 v -0.799951 h 4.999695 v 0.799951 h 3.50004
        v -0.799951 h 0.99994 v -0.999939 h 0.79995 V 9.499678 h -0.79995
        V 4.499983 h 0.79995 V 0.999939 h -0.79995 V 0 h -0.99994 V -0.799952
        H 9.499678 V 0 H 4.499983 v -0.799952 z" />
</g>
<g id="g598" transform="translate(247, 38)"  class="key keypos-32 behavior-keypress" >
    <path transform="translate(2.5, 2.5)" class="key-switch" id="key-switch-0-32"
        d="M 0.999938,-0.799952 V 0 H 0 V 0.999939 H -0.799952 V 4.499983
        H 0 v 4.999695 h -0.799952 v 3.500045 H 0 v 0.999939 h 0.999938
        v 0.799951 h 3.500045 v -0.799951 h 4.999695 v 0.799951 h 3.50004
        v -0.799951 h 0.99994 v -0.999939 h 0.79995 V 9.499678 h -0.79995
        V 4.499983 h 0.79995 V 0.999939 h -0.79995 V 0 h -0.99994 V -0.799952
        H 9.499678 V 0 H 4.499983 v -0.799952 z" />
</g>
<g id="g599" transform="translate(266, 42.75)"  class="key keypos-33 behavior-keypress" >
    <path transform="translate(2.5, 2.5)" class="key-switch" id="key-switch-0-33"
        d="M 0.999938,-0.799952 V 0 H 0 V 0.999939 H -0.799952 V 4.499983
        H 0 v 4.999695 h -0.799952 v 3.500045 H 0 v 0.999939 h 0.999938
        v 0.799951 h 3.500045 v -0.799951 h 4.999695 v 0.799951 h 3.50004
        v -0.799951 h 0.99994 v -0.999939 h 0.79995 V 9.499678 h -0.79995
        V 4.499983 h 0.79995 V 0.999939 h -0.79995 V 0 h -0.99994 V -0.799952
        H 9.499678 V 0 H 4.499983 v -0.799952 z" />
</g>
<g id="g600" transform="translate(285, 52.25)"  class="key keypos-34 behavior-keypress" >
    <path transform="translate(2.5, 2.5)" class="key-switch" id="key-switch-0-34"
        d="M 0.999938,-0.799952 V 0 H 0 V 0.999939 H -0.799952 V 4.499983
        H 0 v 4.999695 h -0.799952 v 3.500045 H 0 v 0.999939 h 0.999938
        v 0.799951 h 3.500045 v -0.799951 h 4.999695 v 0.799951 h 3.50004
        v -0.799951 h 0.99994 v -0.999939 h 0.79995 V 9.499678 h -0.79995
        V 4.499983 h 0.79995 V 0.999939 h -0.79995 V 0 h -0.99994 V -0.799952
        H 9.499678 V 0 H 4.499983 v -0.799952 z" />
</g>
<g id="g601" transform="translate(304, 52.25)"  class="key keypos-35 behavior-keypress" >
    <path transform="translate(2.5, 2.5)" class="key-switch" id="key-switch-0-35"
        d="M 0.999938,-0.799952 V 0 H 0 V 0.999939 H -0.799952 V 4.499983
        H 0 v 4.999695 h -0.799952 v 3.500045 H 0 v 0.999939 h 0.999938
        v 0.799951 h 3.500045 v -0.799951 h 4.999695 v 0.799951 h 3.50004
        v -0.799951 h 0.99994 v -0.999939 h 0.79995 V 9.499678 h -0.79995
        V 4.499983 h 0.79995 V 0.999939 h -0.79995 V 0 h -0.99994 V -0.799952
        H 9.499678 V 0 H 4.499983 v -0.799952 z" />
</g>
<g id="g603" transform="rotate(10, 74.1, 66.5)"  class="key keypos-36 behavior-layertap" ><g id="g602" transform="translate(74.1, 66.5)" >
    <path transform="translate(2.5, 2.5)" class="key-switch" id="key-switch-0-36"
        d="M 0.999938,-0.799952 V 0 H 0 V 0.999939 H -0.799952 V 4.499983
        H 0 v 4.999695 h -0.799952 v 3.500045 H 0 v 0.999939 h 0.999938
        v 0.799951 h 3.500045 v -0.799951 h 4.999695 v 0.799951 h 3.50004
        v -0.799951 h 0.99994 v -0.999939 h 0.79995 V 9.499678 h -0.79995
        V 4.499983 h 0.79995 V 0.999939 h -0.79995 V 0 h -0.99994 V -0.799952
        H 9.499678 V 0 H 4.499983 v -0.799952 z" />
</g></g>
<g id="g605" transform="rotate(15, 95.0, 70.3)"  class="key keypos-37 behavior-layertap" ><g id="g604" transform="translate(95.0, 70.3)" >
    <path transform="translate(2.5, 2.5)" class="key-switch" id="key-switch-0-37"
        d="M 0.999938,-0.799952 V 0 H 0 V 0.999939 H -0.799952 V 4.499983
        H 0 v 4.999695 h -0.799952 v 3.500045 H 0 v 0.999939 h 0.999938
        v 0.799951 h 3.500045 v -0.799951 h 4.999695 v 0.799951 h 3.50004
        v -0.799951 h 0.99994 v -0.999939 h 0.79995 V 9.499678 h -0.79995
        V 4.499983 h 0.79995 V 0.999939 h -0.79995 V 0 h -0.99994 V -0.799952
        H 9.499678 V 0 H 4.499983 v -0.799952 z" />
</g></g>
<g id="g607" transform="rotate(20, 114.95, 76.0)"  class="key keypos-38 behavior-layertap" ><g id="g606" transform="translate(114.95, 76.0)" >
    <path transform="translate(2.5, 2.5)" class="key-switch" id="key-switch-0-38"
        d="M 0.999938,-0.799952 V 0 H 0 V 0.999939 H -0.799952 V 4.499983
        H 0 v 4.999695 h -0.799952 v 3.500045 H 0 v 0.999939 h 0.999938
        v 0.799951 h 3.500045 v -0.799951 h 4.999695 v 0.799951 h 3.50004
        v -0.799951 h 0.99994 v -0.999939 h 0.79995 V 9.499678 h -0.79995
        V 4.499983 h 0.79995 V 0.999939 h -0.79995 V 0 h -0.99994 V -0.799952
        H 9.499678 V 0 H 4.499983 v -0.799952 z" />
</g></g>
<g id="g609" transform="rotate(25, 134.9, 83.60000000000001)"  class="key keypos-39 behavior-keypress" ><g id="g608" transform="translate(134.9, 83.60000000000001)" >
    <path transform="translate(2.5, 2.5)" class="key-switch" id="key-switch-0-39"
        d="M 0.999938,-0.799952 V 0 H 0 V 0.999939 H -0.799952 V 4.499983
        H 0 v 4.999695 h -0.799952 v 3.500045 H 0 v 0.999939 h 0.999938
        v 0.799951 h 3.500045 v -0.799951 h 4.999695 v 0.799951 h 3.50004
        v -0.799951 h 0.99994 v -0.999939 h 0.79995 V 9.499678 h -0.79995
        V 4.499983 h 0.79995 V 0.999939 h -0.79995 V 0 h -0.99994 V -0.799952
        H 9.499678 V 0 H 4.499983 v -0.799952 z" />
</g></g>
<g id="g611" transform="rotate(-25, 188.1, 83.60000000000001)"  class="key keypos-40 behavior-keypress" ><g id="g610" transform="translate(169.1, 83.60000000000001)" >
    <path transform="translate(2.5, 2.5)" class="key-switch" id="key-switch-0-40"
        d="M 0.999938,-0.799952 V 0 H 0 V 0.999939 H -0.799952 V 4.499983
        H 0 v 4.999695 h -0.799952 v 3.500045 H 0 v 0.999939 h 0.999938
        v 0.799951 h 3.500045 v -0.799951 h 4.999695 v 0.799951 h 3.50004
        v -0.799951 h 0.99994 v -0.999939 h 0.79995 V 9.499678 h -0.79995
        V 4.499983 h 0.79995 V 0.999939 h -0.79995 V 0 h -0.99994 V -0.799952
        H 9.499678 V 0 H 4.499983 v -0.799952 z" />
</g></g>
<g id="g613" transform="rotate(-20, 208.04999999999998, 76.0)"  class="key keypos-41 behavior-layertap" ><g id="g612" transform="translate(189.04999999999998, 76.0)" >
    <path transform="translate(2.5, 2.5)" class="key-switch" id="key-switch-0-41"
        d="M 0.999938,-0.799952 V 0 H 0 V 0.999939 H -0.799952 V 4.499983
        H 0 v 4.999695 h -0.799952 v 3.500045 H 0 v 0.999939 h 0.999938
        v 0.799951 h 3.500045 v -0.799951 h 4.999695 v 0.799951 h 3.50004
        v -0.799951 h 0.99994 v -0.999939 h 0.79995 V 9.499678 h -0.79995
        V 4.499983 h 0.79995 V 0.999939 h -0.79995 V 0 h -0.99994 V -0.799952
        H 9.499678 V 0 H 4.499983 v -0.799952 z" />
</g></g>
<g id="g615" transform="rotate(-15, 228.0, 70.3)"  class="key keypos-42 behavior-layertap" ><g id="g614" transform="translate(209.0, 70.3)" >
    <path transform="translate(2.5, 2.5)" class="key-switch" id="key-switch-0-42"
        d="M 0.999938,-0.799952 V 0 H 0 V 0.999939 H -0.799952 V 4.499983
        H 0 v 4.999695 h -0.799952 v 3.500045 H 0 v 0.999939 h 0.999938
        v 0.799951 h 3.500045 v -0.799951 h 4.999695 v 0.799951 h 3.50004
        v -0.799951 h 0.99994 v -0.999939 h 0.79995 V 9.499678 h -0.79995
        V 4.499983 h 0.79995 V 0.999939 h -0.79995 V 0 h -0.99994 V -0.799952
        H 9.499678 V 0 H 4.499983 v -0.799952 z" />
</g></g>
<g id="g617" transform="rotate(-10, 248.9, 66.5)"  class="key keypos-43 behavior-layertap" ><g id="g616" transform="translate(229.9, 66.5)" >
    <path transform="translate(2.5, 2.5)" class="key-switch" id="key-switch-0-43"
        d="M 0.999938,-0.799952 V 0 H 0 V 0.999939 H -0.799952 V 4.499983
        H 0 v 4.999695 h -0.799952 v 3.500045 H 0 v 0.999939 h 0.999938
        v 0.799951 h 3.500045 v -0.799951 h 4.999695 v 0.799951 h 3.50004
        v -0.799951 h 0.99994 v -0.999939 h 0.79995 V 9.499678 h -0.79995
        V 4.499983 h 0.79995 V 0.999939 h -0.79995 V 0 h -0.99994 V -0.799952
        H 9.499678 V 0 H 4.499983 v -0.799952 z" />
</g></g></g>
<g id="g624" transform="translate(10, 172.60000000000002)" ></g>
<g id="g625" transform="translate(10, 184.60000000000002)" ></g>
<g id="g626" transform="translate(10, 196.60000000000002)" >
            <text  transform="translate(171.5, 0)" 
                y="5.6" 
                class="zkeymap-notice"
                style="font-size:5.6;transform-box:fill-box;text-align:center;text-anchor:middle;;">
                <![CDATA[Generated by zkeymap.]]>
            </text>
            </g>
<g id="g627" transform="translate(10, 204.20000000000002)" >
            <text  transform="translate(171.5, 0)" 
                y="5.6" 
                class="zkeymap-link"
                style="font-size:5.6;transform-box:fill-box;text-align:center;text-anchor:middle;;">
                <![CDATA[https://pypi.org/project/zkeymap/]]>
            </text>
            </g>
        </g>
    </svg>